<?xml version="1.0" encoding="utf-8"?>
<!-- Generator: Adobe Illustrator 21.0.0, SVG Export Plug-In . SVG Version: 6.00 Build 0)  -->
<svg version="1.1" id="Layer_1" xmlns="http://www.w3.org/2000/svg" xmlns:xlink="http://www.w3.org/1999/xlink" x="0px" y="0px"
	 viewBox="0 0 266 266" style="enable-background:new 0 0 266 266;" xml:space="preserve">
<style type="text/css">
	.st0{fill:#00B1B5;stroke:#FFFFFF;stroke-miterlimit:10;}
	.st1{fill:#FFFFFF;}
</style>
<g>
	<circle class="st0" cx="133" cy="133" r="132.5"/>
	<g>
		<g id="calendar_1_">
			<path class="st1" d="M181.1,86.1h-15.6v-7.2c0-2-1.6-3.6-3.6-3.6s-3.6,1.6-3.6,3.6v7.2h-21.6v-7.2c0-2-1.6-3.6-3.6-3.6
				s-3.6,1.6-3.6,3.6v7.2h-21.6v-7.2c0-2-1.6-3.6-3.6-3.6s-3.6,1.6-3.6,3.6v7.2H84.9c-5.3,0-9.6,4.3-9.6,9.6v85.3
				c0,5.3,4.3,9.6,9.6,9.6h96.1c5.3,0,9.6-4.3,9.6-9.6V95.8C190.7,90.4,186.4,86.1,181.1,86.1z M183.5,181.1c0,1.3-1.1,2.4-2.4,2.4
				H84.9c-1.3,0-2.4-1.1-2.4-2.4V95.8c0-1.3,1.1-2.4,2.4-2.4h15.6v7.2c0,2,1.6,3.6,3.6,3.6s3.6-1.6,3.6-3.6v-7.2h21.6v7.2
				c0,2,1.6,3.6,3.6,3.6s3.6-1.6,3.6-3.6v-7.2h21.6v7.2c0,2,1.6,3.6,3.6,3.6s3.6-1.6,3.6-3.6v-7.2h15.6c1.3,0,2.4,1.1,2.4,2.4V181.1
				z"/>
			<rect x="100.6" y="118.6" class="st1" width="14.4" height="10.8"/>
			<rect x="100.6" y="136.6" class="st1" width="14.4" height="10.8"/>
			<rect x="100.6" y="154.6" class="st1" width="14.4" height="10.8"/>
			<rect x="125.8" y="154.6" class="st1" width="14.4" height="10.8"/>
			<rect x="125.8" y="136.6" class="st1" width="14.4" height="10.8"/>
			<rect x="125.8" y="118.6" class="st1" width="14.4" height="10.8"/>
			<rect x="151" y="154.6" class="st1" width="14.4" height="10.8"/>
			<rect x="151" y="136.6" class="st1" width="14.4" height="10.8"/>
			<rect x="151" y="118.6" class="st1" width="14.4" height="10.8"/>
		</g>
	</g>
</g>
</svg>
